REM MD5 cf65cb062564ee3a8e942242c217456c
FILE "Angel Blade - Neo Tokyo Guardians (Japan).bin" BINARY
  TRACK 01 MODE2/2352
    INDEX 01 00:00:00
  TRACK 02 AUDIO
    INDEX 00 25:02:24
    INDEX 01 25:04:24
  TRACK 03 AUDIO
    INDEX 00 27:57:34
    INDEX 01 27:59:34
REM LEADOUT 30:49:41
